<svg width="161" height="30" viewBox="0 0 161 30" fill="none" xmlns="http://www.w3.org/2000/svg">
<path fill-rule="evenodd" clip-rule="evenodd" d="M0 0.228361C0.215406 0.197051 0.431104 0.139271 0.64651 0.138876C3.88111 0.132851 7.1162 0.0992696 10.3499 0.155173C11.4095 0.173248 12.4949 0.317746 13.5163 0.598151C15.6792 1.19155 16.9386 2.89354 17.2108 5.13698C17.5411 7.8624 16.5079 9.94327 14.4151 11.5524C13.6405 12.1479 12.7926 12.646 11.9429 13.2118C14.2799 16.4378 16.6297 19.6812 19.0583 23.0334H17.7277C16.545 23.0334 15.3613 23.0517 14.1793 23.018C13.9489 23.0114 13.6386 22.8654 13.5099 22.6806C11.3476 19.5869 9.20739 16.4769 7.06692 13.3677C6.97579 13.2349 6.87743 13.0731 6.87186 12.9211C6.84898 12.3281 6.86237 11.7335 6.86237 11.2705C8.1416 10.8123 9.37038 10.462 10.5196 9.93536C11.7283 9.38137 12.5682 8.43358 12.8122 7.03926C13.1362 5.19031 12.2222 3.96785 10.3741 3.92567C8.38204 3.88044 6.38834 3.9154 4.34507 3.9154V22.9766H0V0.228361Z" fill="#0FC500"/>
<path fill-rule="evenodd" clip-rule="evenodd" d="M76.8773 0C77.8698 0.1845 78.8691 0.340555 79.8539 0.562983C80.4428 0.695827 81.1915 0.773064 81.5304 1.16972C81.8196 1.5079 81.6362 2.26615 81.6448 2.83931C81.6551 3.52397 81.6473 4.20953 81.6473 4.87938C80.5449 4.5726 79.4962 4.21921 78.4204 3.99451C76.5612 3.60576 74.6815 3.56842 72.804 3.90809C69.6113 4.48608 67.8107 6.32387 67.3038 9.55441C67.0588 11.1193 67.1275 12.6828 67.5037 14.2192C68.2095 17.104 70.0789 18.7554 72.9359 19.2664C75.7093 19.7625 78.4145 19.4233 81.0472 18.4351C81.2165 18.3713 81.387 18.3113 81.6075 18.2314V22.0667C79.8805 22.7495 78.0672 23.0564 76.2161 23.1537C73.9714 23.2724 71.7517 23.1228 69.5946 22.419C66.3514 21.3601 64.2647 19.1564 63.3711 15.8529C62.6081 13.0337 62.5494 10.1696 63.2602 7.33063C64.2259 3.47301 66.8114 1.31037 70.5637 0.450287C71.3663 0.266281 72.1836 0.148548 72.9943 0H76.8773Z" fill="#0FC500"/>
<path fill-rule="evenodd" clip-rule="evenodd" d="M160.75 22.5225C158.03 23.1546 155.301 23.3014 152.602 22.4718C150.211 21.737 148.684 20.0855 148.032 17.6498C147.522 15.7492 147.476 13.8171 147.863 11.8886C148.379 9.30594 149.893 7.5763 152.386 6.80097C155.156 5.93941 157.956 6.06544 160.75 6.72146V10.0833C159.178 9.70744 157.585 9.53163 155.969 9.63761C153.658 9.78952 152.22 11.0478 151.917 13.2469C151.821 13.9427 151.833 14.6671 151.897 15.3687C152.136 18.0188 153.725 19.5868 156.356 19.5943C157.821 19.5983 159.286 19.3144 160.75 19.1602V22.5225Z" fill="#0FC500"/>
<path fill-rule="evenodd" clip-rule="evenodd" d="M38.2979 6.93481V0.16687H42.4776C42.4876 0.366186 42.5057 0.563131 42.5057 0.760273C42.5068 7.6494 42.5053 14.5383 42.5105 21.4277C42.5109 21.7811 42.5212 22.0419 42.0604 22.149C39.3656 22.7735 36.6518 23.1441 33.879 22.9737C30.6145 22.7733 28.3588 21.0497 27.4781 17.9721C27.2295 17.1027 27.0699 16.1789 27.0562 15.2769C27.0371 14.0354 27.0662 12.7659 27.3033 11.5541C27.8759 8.6279 29.7956 6.86774 32.709 6.39197C34.5278 6.09458 36.315 6.12925 38.0372 6.88858C38.1004 6.91644 38.1761 6.91436 38.2979 6.93481ZM38.291 14.776C38.291 13.5256 38.2788 12.2754 38.2991 11.0258C38.3042 10.694 38.1835 10.5209 37.9009 10.3836C36.7336 9.81668 35.5081 9.63288 34.2355 9.82716C32.5429 10.0862 31.572 11.0717 31.286 12.7729C31.0792 14.0029 31.1273 15.2279 31.4132 16.4374C31.8347 18.2194 33.0279 19.3289 34.7235 19.3687C35.7279 19.392 36.7375 19.2069 37.7447 19.1129C38.1657 19.0738 38.3142 18.8593 38.3024 18.4139C38.2694 17.2022 38.291 15.9888 38.291 14.776Z" fill="#0FC500"/>
<path fill-rule="evenodd" clip-rule="evenodd" d="M49.376 16.1159C49.4144 17.526 49.9616 18.5918 51.2272 19.0318C52.1873 19.3655 53.235 19.5877 54.2456 19.594C55.9917 19.6049 57.7393 19.4097 59.5505 19.2973C59.5505 20.2418 59.5578 21.2801 59.5385 22.3178C59.5369 22.4155 59.3791 22.5809 59.2757 22.5972C56.2491 23.0678 53.2113 23.3765 50.2161 22.4678C47.1784 21.5464 45.6712 19.3134 45.2708 16.233C45.045 14.4963 45.1088 12.7679 45.5788 11.0712C46.2505 8.64599 47.809 7.12051 50.2235 6.5271C52.047 6.07909 53.8932 6.07642 55.7139 6.53422C58.3732 7.20298 59.8908 9.00907 60.3093 11.6798C60.5144 12.9911 60.4094 14.3516 60.4493 15.6896C60.4627 16.1427 60.1678 16.1187 59.8554 16.1184C56.5833 16.1139 53.3108 16.1158 50.0388 16.1158H49.376V16.1159ZM49.4001 13.0777H56.4265C56.3658 10.7806 55.3503 9.66578 53.2856 9.58084C50.8962 9.48237 49.6402 10.5966 49.4001 13.0777Z" fill="#0FC500"/>
<path fill-rule="evenodd" clip-rule="evenodd" d="M99.1329 16.1118H88.1656C88.1351 17.35 88.6072 18.2486 89.6016 18.8594C90.445 19.3773 91.3949 19.6064 92.3554 19.5899C94.3227 19.5567 96.2882 19.4267 98.3071 19.3339C98.3071 20.2252 98.3182 21.2481 98.2922 22.2703C98.2893 22.389 98.0947 22.5854 97.9662 22.6065C95.2741 23.0515 92.5667 23.2775 89.872 22.7117C86.3125 21.9651 84.2612 19.5264 83.982 15.8359C83.8614 14.2467 83.8926 12.6649 84.3218 11.1176C84.9791 8.75162 86.4582 7.19848 88.8291 6.57347C90.7224 6.0738 92.6374 6.0577 94.5275 6.55283C97.2085 7.25517 98.8004 9.2023 99.1698 12.1134C99.3363 13.4301 99.3567 14.7445 99.1329 16.1118ZM88.1999 13.0929H95.1378C95.3628 11.0427 94.138 9.69042 92.0435 9.57555C89.9191 9.45871 88.2838 10.4797 88.1999 13.0929Z" fill="#0FC500"/>
<path fill-rule="evenodd" clip-rule="evenodd" d="M106.166 22.9966H101.972V6.22277C102.981 6.22277 103.975 6.2116 104.968 6.23837C105.08 6.24133 105.25 6.44292 105.285 6.58061C105.452 7.22912 105.581 7.88742 105.737 8.60616C106.092 8.30768 106.401 8.02816 106.729 7.77512C108.904 6.09921 111.327 5.79105 113.859 6.65942C116.075 7.41876 116.94 9.27433 117.015 11.4656C117.115 14.4311 117.051 17.4019 117.056 20.3703C117.058 21.2274 117.056 22.0843 117.056 22.9855H112.841V22.3631C112.841 19.1885 112.76 16.0121 112.865 12.8415C112.959 9.99978 111.232 9.37991 109.158 9.76669C108.12 9.96057 107.206 10.454 106.41 11.1436C106.252 11.2801 106.177 11.592 106.176 11.8232C106.161 15.3334 106.166 18.8437 106.166 22.3536V22.9966H106.166Z" fill="#0FC500"/>
<path fill-rule="evenodd" clip-rule="evenodd" d="M128.195 6.21666V9.59999H124.543C124.522 9.78735 124.494 9.92839 124.494 10.0694C124.491 12.4957 124.489 14.922 124.496 17.3482C124.496 17.6257 124.535 17.9072 124.591 18.1796C124.775 19.0671 125.358 19.5682 126.255 19.6182C126.568 19.6361 126.883 19.6263 127.197 19.6271C127.509 19.6283 127.822 19.6275 128.18 19.6275V22.9624C128.112 22.9797 128.026 23.0216 127.941 23.0208C126.574 23.0129 125.205 23.0465 123.841 22.976C121.907 22.876 120.703 21.7445 120.384 19.8209C120.323 19.4545 120.281 19.0793 120.28 18.7078C120.274 13.7806 120.276 8.8533 120.277 3.92611C120.277 3.815 120.289 3.70368 120.302 3.49479C121.272 3.49479 122.241 3.48501 123.21 3.5102C123.303 3.51296 123.439 3.7184 123.474 3.85154C123.641 4.48109 123.798 5.1146 123.919 5.75432C123.988 6.11987 124.155 6.23256 124.517 6.22417C125.532 6.20125 126.549 6.21627 127.565 6.21627C127.764 6.21666 127.963 6.21666 128.195 6.21666Z" fill="#0FC500"/>
<path fill-rule="evenodd" clip-rule="evenodd" d="M134.789 22.993H130.597V6.22106C131.615 6.22106 132.624 6.21167 133.633 6.23627C133.731 6.23854 133.873 6.4341 133.911 6.56536C134.072 7.11778 134.201 7.67967 134.337 8.21688C135.052 7.7417 135.73 7.23877 136.457 6.82325C137.203 6.39647 138.033 6.21849 138.943 6.22748V9.6187C138.662 9.659 138.361 9.659 138.089 9.75026C137.447 9.96677 136.79 10.1695 136.192 10.4817C135.225 10.9859 134.698 11.6752 134.749 12.9495C134.873 16.0791 134.789 19.2168 134.789 22.3516V22.993Z" fill="#0FC500"/>
<path d="M24.2984 6.26782H20.1727V23.006H24.2984V6.26782Z" fill="#0FC500"/>
<path d="M145.005 6.26782H140.88V23.006H145.005V6.26782Z" fill="#0FC500"/>
<path d="M24.3046 0.150665H20.1707V3.48471H24.3046V0.150665Z" fill="#0FC500"/>
<path d="M145.021 0.157745H140.877V3.49149H145.021V0.157745Z" fill="#0FC500"/>
<path d="M155.608 29.1296H155.234V26.2142H154.214V25.8783H156.627V26.2142H155.608V29.1296Z" fill="#0FC500"/>
<path d="M158.537 29.1287L157.445 26.2468H157.427C157.448 26.4751 157.458 26.7465 157.458 27.0605V29.1286H157.112V25.8773H157.676L158.695 28.5592H158.712L159.741 25.8773H160.3V29.1286H159.926V27.0337C159.926 26.7938 159.936 26.5326 159.957 26.251H159.939L158.838 29.1286H158.537V29.1287Z" fill="#0FC500"/>
</svg>
